<svg xmlns="http://www.w3.org/2000/svg" viewBox="0 0 100 100">

  <rect width="100" height="100" fill="#4dabf7" />

  <path d="M70,50 C78,50 85,57 85,65 C85,73 78,80 70,80 L25,80 C15,80 5,70 5,60 C5,50 15,40 25,40 C30,30 40,25 50,25 C60,25 68,35 68,45 C68,45 70,45 70,50 Z" fill="white" />
    <path d="M30,85 L33,92 C33.5,93 32.5,94 32,93 L29,86" fill="#228be6" />
  <path d="M40,85 L43,92 C43.5,93 42.5,94 42,93 L39,86" fill="#228be6" />
  <path d="M50,85 L53,92 C53.5,93 52.5,94 52,93 L49,86" fill="#228be6" />
  <path d="M60,85 L63,92 C63.5,93 62.5,94 62,93 L59,86" fill="#228be6" />
</svg>